# xmcd
#
# Track frame offsets: 
#        150
#        5559
#        24131
#        43570
#        51632
#        64337
#        80409
#        90767
#        109084
#        117656
#        131279
#        144545
#        150770
#        168781
#        186384
#        206487
#        222916
#        235263
#        253019
#        266336
#        283326
#        297612
#        320010
#        331388
#        338480
#
# Disc length: 4628 seconds
#
# Revision: 0
# Processed by: cddbd v1.5.2PL0 Copyright (c) Steve Scherf et al.
# Submitted via: ExactAudioCopy v0.99pb5
#
DISCID=6c121219
DTITLE=Elvis Presley  - FTD 39 - Closing Night, 09-03-1973  
DYEAR=1900
DGENRE=
TTITLE0=Also Sprach Zarathustra
TTITLE1=See See Rider
TTITLE2=I Got A Woman-Amen
TTITLE3=Love Me
TTITLE4=Steamroller Blues
TTITLE5=You Gave Me A Mountain
TTITLE6=Trouble
TTITLE7=Long Tall Sally-Whole Lotta Shakin' Goin' On-Your Mamma Don't 
TTITLE7=Dance-Flip, Flop And Fly-Hound Dog
TTITLE8=Love Me Tender
TTITLE9=Fever
TTITLE10=What Now My Love
TTITLE11=Suspicious Minds-Bridge Over Troubled Water
TTITLE12=Bridge Over Troubled Water
TTITLE13=Suspicious Minds
TTITLE14=Introductions
TTITLE15=My Boy
TTITLE16=I Can't Stop Loving You
TTITLE17=An American Trilogy
TTITLE18=A Big Hunk O' Love
TTITLE19=The First Time Ever I Saw Your Face
TTITLE20=Mystery Train-Tiger Man
TTITLE21=How Great Thou Art
TTITLE22=Help Me Make It Through The Night
TTITLE23=Softly As I Leave You
TTITLE24=Can't Help Falling In Love
EXTD=
EXTT0=
EXTT1=
EXTT2=
EXTT3=
EXTT4=
EXTT5=
EXTT6=
EXTT7=
EXTT8=
EXTT9=
EXTT10=
EXTT11=
EXTT12=
EXTT13=
EXTT14=
EXTT15=
EXTT16=
EXTT17=
EXTT18=
EXTT19=
EXTT20=
EXTT21=
EXTT22=
EXTT23=
EXTT24=
PLAYORDER=
